0
SECTION
2
HEADER
9
$INSUNITS
70
4
9
$ACADVER
1
AC1014
9
$HANDSEED
5
FFFF
0
ENDSEC
0
SECTION
2
TABLES
0
TABLE
2
VPORT
5
8
100
AcDbSymbolTable
0
ENDTAB
0
TABLE
2
LTYPE
5
5
100
AcDbSymbolTable
0
LTYPE
5
14
100
AcDbSymbolTableRecord
100
AcDbLinetypeTableRecord
2
BYBLOCK
70
0
0
LTYPE
5
15
100
AcDbSymbolTableRecord
100
AcDbLinetypeTableRecord
2
BYLAYER
70
0
0
ENDTAB
0
TABLE
2
LAYER
5
2
100
AcDbSymbolTable
70
2
0
LAYER
5
50
100
AcDbSymbolTableRecord
100
AcDbLayerTableRecord
2
0
70
0
6
CONTINUOUS
0
ENDTAB
0
TABLE
2
STYLE
5
3
100
AcDbSymbolTable
70
1
0
STYLE
5
11
100
AcDbSymbolTableRecord
100
AcDbTextStyleTableRecord
2
STANDARD
70
0
0
ENDTAB
0
TABLE
2
VIEW
5
6
100
AcDbSymbolTable
70
0
0
ENDTAB
0
TABLE
2
UCS
5
7
100
AcDbSymbolTable
70
0
0
ENDTAB
0
TABLE
2
APPID
5
9
100
AcDbSymbolTable
70
2
0
APPID
5
12
100
AcDbSymbolTableRecord
100
AcDbRegAppTableRecord
2
ACAD
70
0
0
ENDTAB
0
TABLE
2
DIMSTYLE
5
A
100
AcDbSymbolTable
70
1
0
ENDTAB
0
TABLE
2
BLOCK_RECORD
5
1
100
AcDbSymbolTable
70
1
0
BLOCK_RECORD
5
1F
100
AcDbSymbolTableRecord
100
AcDbBlockTableRecord
2
*MODEL_SPACE
0
BLOCK_RECORD
5
1B
100
AcDbSymbolTableRecord
100
AcDbBlockTableRecord
2
*PAPER_SPACE
0
ENDTAB
0
ENDSEC
0
SECTION
2
BLOCKS
0
BLOCK
5
20
100
AcDbEntity
100
AcDbBlockBegin
2
*MODEL_SPACE
0
ENDBLK
5
21
100
AcDbEntity
100
AcDbBlockEnd
0
BLOCK
5
1C
100
AcDbEntity
100
AcDbBlockBegin
2
*PAPER_SPACE
0
ENDBLK
5
1D
100
AcDbEntity
100
AcDbBlockEnd
0
ENDSEC
0
SECTION
2
ENTITIES
0
LWPOLYLINE
5
100
100
AcDbEntity
8
0
100
AcDbPolyline
90
4
70
1
43
0.0
10
328.15751714062401
20
212.3846450190004
10
234.5999952033161
20
99.175756395204843
10
194.5999952033161
20
99.175756395204814
10
101.04247326600819
20
212.38464501900035
0
LWPOLYLINE
5
101
100
AcDbEntity
8
0
100
AcDbPolyline
90
26
70
1
43
0.0
10
189.5999952033161
20
79.175756395204814
10
189.5999952033161
20
74.175756395204814
10
239.5999952033161
20
74.175756395204814
10
239.5999952033161
20
79.175756395204814
10
368.15751714062401
20
232.3846450190004
10
313.54247326600819
20
232.38464501900037
10
313.54247326600824
20
236.3846450190004
42
-0.41421356237309759
10
317.54247326600819
20
240.38464501900037
10
327.04247326600819
20
240.38464501900037
42
0.41421356237309759
10
331.04247326600813
20
244.38464501900035
10
331.04247326600819
20
248.38464501900037
42
0.41421356237309759
10
327.04247326600819
20
252.3846450190004
10
305.04247326600819
20
252.3846450190004
42
0.41421356237309759
10
301.04247326600819
20
248.38464501900037
10
301.04247326600819
20
232.38464501900037
10
98.542473266008201
20
232.38464501900037
10
98.542473266008216
20
236.3846450190004
42
-0.4142135623731002
10
102.5424732660082
20
240.38464501900037
10
112.0424732660082
20
240.38464501900037
42
0.4142135623731002
10
116.04247326600819
20
244.38464501900035
10
116.04247326600819
20
248.38464501900037
42
0.4142135623731002
10
112.0424732660082
20
252.38464501900037
10
90.042473266008201
20
252.3846450190004
42
0.4142135623731002
10
86.042473266008187
20
248.38464501900037
10
86.042473266008201
20
232.38464501900037
10
61.042473266008187
20
232.38464501900037
0
ENDSEC
0
SECTION
2
OBJECTS
0
DICTIONARY
5
C
100
AcDbDictionary
3
ACAD_GROUP
350
D
3
ACAD_MLINESTYLE
350
17
0
DICTIONARY
5
D
100
AcDbDictionary
0
DICTIONARY
5
1A
330
C
100
AcDbDictionary
0
DICTIONARY
5
17
100
AcDbDictionary
0
ENDSEC
0
EOF
