0
SECTION
2
HEADER
9
$INSUNITS
70
1
9
$ACADVER
1
AC1014
9
$HANDSEED
5
FFFF
0
ENDSEC
0
SECTION
2
TABLES
0
TABLE
2
VPORT
5
8
100
AcDbSymbolTable
0
ENDTAB
0
TABLE
2
LTYPE
5
5
100
AcDbSymbolTable
0
LTYPE
5
14
100
AcDbSymbolTableRecord
100
AcDbLinetypeTableRecord
2
BYBLOCK
70
0
0
LTYPE
5
15
100
AcDbSymbolTableRecord
100
AcDbLinetypeTableRecord
2
BYLAYER
70
0
0
ENDTAB
0
TABLE
2
LAYER
5
2
100
AcDbSymbolTable
70
2
0
LAYER
5
50
100
AcDbSymbolTableRecord
100
AcDbLayerTableRecord
2
0
70
0
6
CONTINUOUS
0
ENDTAB
0
TABLE
2
STYLE
5
3
100
AcDbSymbolTable
70
1
0
STYLE
5
11
100
AcDbSymbolTableRecord
100
AcDbTextStyleTableRecord
2
STANDARD
70
0
0
ENDTAB
0
TABLE
2
VIEW
5
6
100
AcDbSymbolTable
70
0
0
ENDTAB
0
TABLE
2
UCS
5
7
100
AcDbSymbolTable
70
0
0
ENDTAB
0
TABLE
2
APPID
5
9
100
AcDbSymbolTable
70
2
0
APPID
5
12
100
AcDbSymbolTableRecord
100
AcDbRegAppTableRecord
2
ACAD
70
0
0
ENDTAB
0
TABLE
2
DIMSTYLE
5
A
100
AcDbSymbolTable
70
1
0
ENDTAB
0
TABLE
2
BLOCK_RECORD
5
1
100
AcDbSymbolTable
70
1
0
BLOCK_RECORD
5
1F
100
AcDbSymbolTableRecord
100
AcDbBlockTableRecord
2
*MODEL_SPACE
0
BLOCK_RECORD
5
1B
100
AcDbSymbolTableRecord
100
AcDbBlockTableRecord
2
*PAPER_SPACE
0
ENDTAB
0
ENDSEC
0
SECTION
2
BLOCKS
0
BLOCK
5
20
100
AcDbEntity
100
AcDbBlockBegin
2
*MODEL_SPACE
0
ENDBLK
5
21
100
AcDbEntity
100
AcDbBlockEnd
0
BLOCK
5
1C
100
AcDbEntity
100
AcDbBlockBegin
2
*PAPER_SPACE
0
ENDBLK
5
1D
100
AcDbEntity
100
AcDbBlockEnd
0
ENDSEC
0
SECTION
2
ENTITIES
0
LWPOLYLINE
5
100
100
AcDbEntity
8
0
100
AcDbPolyline
90
4
70
1
43
0.0
10
-0.082629227783907591
20
6.8114692802118348
10
-4.2065555743038514
20
7.0978530542757214
10
-4.2062091863104589
20
7.1028410413805574
10
-0.082282839790510098
20
6.8164572673166761
0
LWPOLYLINE
5
101
100
AcDbEntity
8
0
100
AcDbPolyline
90
100
70
1
43
0.0
10
-4.4422085083907055
20
7.1142178413650852
10
-6.3863452146072497
20
7.2492273348523453
10
-6.6478901709242315
20
3.4829799638877943
10
-4.7037534647076873
20
3.3479704704005337
10
-4.7040998527010798
20
3.3429824832956956
10
-6.648236558917624
20
3.4779919767829539
10
-6.6571321844329496
20
3.3498949693622473
10
-2.5332058379130094
20
3.0635111952983651
10
-2.5335522259064014
20
3.0585232081935261
10
-6.6574785724263421
20
3.3449069822574105
10
-6.6663741979416802
20
3.2168099748367052
10
-4.7222374917251342
20
3.0818004813494468
10
-4.7225838797185267
20
3.0768124942446078
10
-6.6667205859350727
20
3.2118219877318683
10
-6.6756162114504001
20
3.0837249803111582
10
-2.5516898649304527
20
2.7973412062472738
10
-2.5520362529238438
20
2.7923532191424352
10
-6.6759625994437908
20
3.0787369932063204
10
-6.6836986395020448
20
2.9673380163674499
10
-4.7397880924481761
20
2.8312068101317496
10
-4.7401373848216908
20
2.8262190255696638
10
-6.6840450275541601
20
2.962350028417005
10
-6.889763779527553
20
3.4967654318902565e-15
10
-5.9055118110236275
20
-1.398706172756102e-15
10
-5.9055118110236275
20
0.39370078740157405
10
-3.9370078740157517
20
0.39370078740157405
10
-3.9370078740157526
20
-1.3987061727561026e-15
10
-1.9685039370078752
20
-2.7974123455122052e-15
10
-1.9685039370078756
20
0.39370078740157199
10
-1.7483827159451283e-15
20
0.39370078740157405
10
-8.7419135797256105e-17
20
-6.9935308637805131e-16
10
10.159071410172759
20
-1.3987061727561038e-15
10
10.282619838647223
20
1.7790973700322892
10
8.3385578841313528
20
1.9129642575821217
10
8.3389013676271766
20
1.9179524455384938
10
10.28296622669934
20
1.7840853579827358
10
10.290702266816323
20
1.8954843356672153
10
6.1667759202963808
20
2.1818681097311008
10
6.1671223082897697
20
2.1868560968359358
10
10.291048654809712
20
1.9004723227720526
10
10.299944280325038
20
2.0285693301927616
10
8.3558075741084892
20
2.1635788236800222
10
8.3561539621018746
20
2.1685668107848595
10
10.30029066831843
20
2.0335573172975989
10
10.30918629383374
20
2.161654324718306
10
6.1852599473138028
20
2.4480380987821908
10
6.1856063353071935
20
2.4530260858870272
10
10.309532681827131
20
2.1666423118231424
10
10.318428307342458
20
2.2947393192438486
10
8.3742916011259148
20
2.4297488127311087
10
8.3746379891193108
20
2.4347367998359477
10
10.318774695335852
20
2.2997273063486867
10
10.580319651652834
20
6.065974677313239
10
8.6361829454362944
20
6.2009841708004982
10
8.6365293334296833
20
6.2059721579053377
10
10.580666039646228
20
6.0709626644180785
10
10.589561665161572
20
6.1990596718387945
10
6.4656353186416293
20
6.4854434459026784
10
6.4659817066350183
20
6.4904314330075161
10
10.589908053154964
20
6.2040476589436313
10
10.598803678670322
20
6.3321446663643464
10
8.654666972453759
20
6.4671541598516082
10
8.6550133604471498
20
6.4721421469564486
10
10.599150066663706
20
6.3371326534691867
10
10.608045692179033
20
6.4652296608899027
10
6.4841193456590753
20
6.7516134349537875
10
6.484465733652466
20
6.756601422058627
10
10.608392080172425
20
6.4702176479947404
10
10.616128120230679
20
6.5816166248336208
10
8.672217573176809
20
6.7177478310693202
10
8.672566865550321
20
6.7227356156314082
10
10.616474508282801
20
6.5866046127840656
10
10.740369324809363
20
8.3706899707668025
10
0.67881251830499001
20
9.7749002635915989
10
0.62439428698820654
20
9.3849785200314653
10
-1.3252144308124598
20
9.6570696766153947
10
-1.270796199495674
20
10.046991420175528
10
-3.2204049172963396
20
10.319082576759454
10
-3.2748231486131254
20
9.9291608331993189
10
-5.2244318664137896
20
10.201251989783245
10
-5.1700136350970034
20
10.59117373334338
10
-6.1448179939973349
20
10.727219311635345
10
-6.3501903579186365
20
7.7698572711687852
10
-4.4061284034027581
20
7.6359903836189549
10
-4.4064718868985819
20
7.6310021956625791
10
-6.3505367459707509
20
7.7648692832183395
10
-6.3582727860877295
20
7.6534703055338529
10
-2.2343464395677706
20
7.3670865314699654
10
-2.2346928275611626
20
7.3620985443651286
10
-6.358619174081122
20
7.6484823184290134
10
-6.3675147995964476
20
7.5203853110082974
10
-4.4233780933798954
20
7.3853758175210364
10
-4.4237244813732888
20
7.3803878304161969
10
-6.3678611875898383
20
7.5153973239034606
10
-6.3767568131051409
20
7.387300316482742
10
-2.2528304665851953
20
7.1009165424188572
10
-2.2531768545785869
20
7.0959285553140177
10
-6.3771032010985325
20
7.3823123293779007
10
-6.3859988266138599
20
7.2542153219571848
10
-4.441862120397313
20
7.1192058284699247
0
LWPOLYLINE
5
102
100
AcDbEntity
8
0
100
AcDbPolyline
90
4
70
1
43
0.0
10
8.4008763993428346
20
6.2223369449947024
10
8.4005300113494421
20
6.2173489578898629
10
4.2766036648294952
20
6.5037327319537486
10
4.2769500528228868
20
6.5087207190585881
0
LWPOLYLINE
5
103
100
AcDbEntity
8
0
100
AcDbPolyline
90
4
70
1
43
0.0
10
-1.9990398625755945
20
7.3457337258412476
10
6.2488127646185356
20
6.7729661822861003
10
6.248466376625144
20
6.7679781951812599
10
-1.9993862505689861
20
7.3407457387364072
0
LWPOLYLINE
5
104
100
AcDbEntity
8
0
100
AcDbPolyline
90
4
70
1
43
0.0
10
-0.064145200766471469
20
7.0776392692629475
10
-4.1880715472864321
20
7.364023043326835
10
-4.1877251592930413
20
7.3690110304316709
10
-0.063798812773079583
20
7.082627256367787
0
LWPOLYLINE
5
105
100
AcDbEntity
8
0
100
AcDbPolyline
90
4
70
1
43
0.0
10
2.1334634829702144
20
7.1806661683102346
10
4.077521245358894
20
7.0445246526489598
10
4.0771719529853794
20
7.0395368680868735
10
2.1331141905966997
20
7.1756783837481466
0
LWPOLYLINE
5
106
100
AcDbEntity
8
0
100
AcDbPolyline
90
4
70
1
43
0.0
10
2.133160355117071
20
7.1806872188555921
10
0.18894536424755279
20
7.3145646443928021
10
0.18928884774337598
20
7.3195528323491779
10
2.1335038386128962
20
7.1856754068119617
0
LWPOLYLINE
5
107
100
AcDbEntity
8
0
100
AcDbPolyline
90
4
70
1
43
0.0
10
4.0597811128305983
20
6.7912554974853725
10
0.17150776624327072
20
7.0612744798872695
10
0.17185415423666234
20
7.0662624669921099
10
4.0601275008239908
20
6.7962434845902129
0
LWPOLYLINE
5
108
100
AcDbEntity
8
0
100
AcDbPolyline
90
4
70
1
43
0.0
10
4.2954340798403425
20
6.7748907081096954
10
8.4193604263603028
20
6.4885069340458124
10
8.4190140383669103
20
6.483518946940972
10
4.2950876918469536
20
6.769902721004855
0
LWPOLYLINE
5
109
100
AcDbEntity
8
0
100
AcDbPolyline
90
4
70
1
43
0.0
10
4.3131646104969175
20
7.0280226507506267
10
8.4369235004122949
20
6.7392376175297448
10
8.4365742080387793
20
6.7342498329676559
10
4.3128153181234028
20
7.0230348661885387
0
LWPOLYLINE
5
110
100
AcDbEntity
8
0
100
AcDbPolyline
90
4
70
1
43
0.0
10
-0.046717058888145681
20
7.3307922111245878
10
-4.1708094637628799
20
7.6147746289307943
10
-4.1704659802670561
20
7.6197628168871701
10
-0.046373575392324153
20
7.3357803990809609
0
LWPOLYLINE
5
111
100
AcDbEntity
8
0
100
AcDbPolyline
90
4
70
1
43
0.0
10
-2.0175238895930203
20
7.0795637367901323
10
6.2303287376010958
20
6.5067961932349885
10
6.229982349607698
20
6.5018082061301499
10
-2.017870277586411
20
7.0745757496852963
0
LWPOLYLINE
5
112
100
AcDbEntity
8
0
100
AcDbPolyline
90
4
70
1
43
0.0
10
-4.4684469186142257
20
3.3266176962063305
10
-4.4681005306208332
20
3.3316056833111687
10
-0.3441741841008894
20
3.045221909247287
10
-0.34452057209428133
20
3.0402339221424466
0
LWPOLYLINE
5
113
100
AcDbEntity
8
0
100
AcDbPolyline
90
4
70
1
43
0.0
10
-0.10886760508453923
20
3.0238691327667699
10
3.7794057415027704
20
2.7538501503648734
10
3.7790593535093788
20
2.7488621632600343
10
-0.10921399307793313
20
3.0188811456619304
0
LWPOLYLINE
5
114
100
AcDbEntity
8
0
100
AcDbPolyline
90
4
70
1
43
0.0
10
4.0150587085125151
20
2.7374853609891976
10
8.138985055032455
20
2.4511015869253119
10
8.138638667039066
20
2.4461135998204728
10
4.0147123205191209
20
2.7324973738843608
0
LWPOLYLINE
5
115
100
AcDbEntity
8
0
100
AcDbPolyline
90
4
70
1
43
0.0
10
3.9965746814950753
20
2.4713153719381094
10
8.120501028015024
20
2.1849315978742241
10
8.1201546400216404
20
2.1799436107693868
10
3.9962282935016842
20
2.4663273848332716
0
LWPOLYLINE
5
116
100
AcDbEntity
8
0
100
AcDbPolyline
90
4
70
1
43
0.0
10
1.798965997758398
20
2.3682884728908395
10
-0.14509176463027648
20
2.5044299885521104
10
-0.14474247225676173
20
2.5094177731141984
10
1.7993152901319134
20
2.3732762574529271
0
LWPOLYLINE
5
117
100
AcDbEntity
8
0
100
AcDbPolyline
90
4
70
1
43
0.0
10
1.7992691256115416
20
2.3682674223454825
10
3.7434841164810551
20
2.2343899968082686
10
3.7431406329852304
20
2.2294018088518968
10
1.7989256421157176
20
2.3632792343891094
0
LWPOLYLINE
5
118
100
AcDbEntity
8
0
100
AcDbPolyline
90
4
70
1
43
0.0
10
-0.36300459911172428
20
2.7740639330913588
10
-4.4869309456316717
20
3.0604477071552432
10
-4.4865845576382792
20
3.0654356942600813
10
-0.36265821111833252
20
2.7790519201961961
0
LWPOLYLINE
5
119
100
AcDbEntity
8
0
100
AcDbPolyline
90
4
70
1
43
0.0
10
-0.38073512976829521
20
2.520931990450447
10
-4.5044940196836656
20
2.8097170236713254
10
-4.5041447273101518
20
2.8147048082334138
10
-0.38038583739478199
20
2.525919775012536
0
LWPOLYLINE
5
120
100
AcDbEntity
8
0
100
AcDbPolyline
90
4
70
1
43
0.0
10
-0.12735163210198078
20
2.7576991437156808
10
3.7609217144853329
20
2.4876801613137856
10
3.7605753264919417
20
2.4826921742089478
10
-0.12769802009537345
20
2.7527111566108431
0
LWPOLYLINE
5
121
100
AcDbEntity
8
0
100
AcDbPolyline
90
4
70
1
43
0.0
10
3.979146539616754
20
2.2181624300764846
10
8.1032389444914781
20
1.9341800122702759
10
8.1028954609956507
20
1.9291918243139052
10
3.9788030561209258
20
2.2131742421201146
0
LWPOLYLINE
5
122
100
AcDbEntity
8
0
100
AcDbPolyline
90
4
70
1
43
0.0
10
5.9314693433042001
20
2.2032209153598203
10
-2.3163832838899148
20
2.7759884589149655
10
-2.3160368958965245
20
2.7809764460198041
10
5.9318157312975917
20
2.2082089024646581
0
LWPOLYLINE
5
123
100
AcDbEntity
8
0
100
AcDbPolyline
90
4
70
1
43
0.0
10
5.9499533703216265
20
2.4693909044109121
10
-2.2978992568724732
20
3.0421584479660559
10
-2.2975528688790816
20
3.0471464350708928
10
5.9502997583150172
20
2.4743788915157472
0
LWPOLYLINE
5
124
100
AcDbEntity
8
0
100
AcDbPolyline
90
4
70
1
43
0.0
10
-0.58505556686767801
20
5.5436223138006637
10
-0.46722909982425082
20
5.535439920255981
10
-0.54905303527107496
20
4.3571752498217116
10
-0.66687950231450199
20
4.3653576433663934
0
LWPOLYLINE
5
125
100
AcDbEntity
8
0
100
AcDbPolyline
90
4
70
1
43
0.0
10
9.3123676647801776
20
4.8563012560473426
10
9.4301941318236171
20
4.848118862502659
10
9.3483701963767913
20
3.6698541920683887
10
9.2305437293333537
20
3.6780365856130723
0
LWPOLYLINE
5
126
100
AcDbEntity
8
0
100
AcDbPolyline
90
4
70
1
43
0.0
10
-4.4766019367186392
20
4.6299217013111251
10
-4.5944284037620671
20
4.6381040948558079
10
-4.5126044683152431
20
5.8163687652900782
10
-4.3947780012718152
20
5.8081863717453945
0
LWPOLYLINE
5
127
100
AcDbEntity
8
0
100
AcDbPolyline
90
4
70
1
43
0.0
10
2.8973804834828591
20
4.7715163982059297
10
2.8891980899381737
20
4.6536899311625044
10
0.92542363921439408
20
4.7900631569072116
10
0.93360603275907916
20
4.907889623950636
0
LWPOLYLINE
5
128
100
AcDbEntity
8
0
100
AcDbPolyline
90
4
70
1
43
0.0
10
0.15302373922583459
20
6.7951044908361595
10
0.15337012721923113
20
6.8000924779409981
10
4.0416434738065492
20
6.530073495539102
10
4.0412970858131443
20
6.5250855084342625
0
ENDSEC
0
SECTION
2
OBJECTS
0
DICTIONARY
5
C
100
AcDbDictionary
3
ACAD_GROUP
350
D
3
ACAD_MLINESTYLE
350
17
0
DICTIONARY
5
D
100
AcDbDictionary
0
DICTIONARY
5
1A
330
C
100
AcDbDictionary
0
DICTIONARY
5
17
100
AcDbDictionary
0
ENDSEC
0
EOF
